<?xml version="1.0" standalone="no"?>
<!DOCTYPE svg PUBLIC "-//W3C//DTD SVG 20010904//EN"
 "http://www.w3.org/TR/2001/REC-SVG-20010904/DTD/svg10.dtd">
<svg version="1.0" xmlns="http://www.w3.org/2000/svg"
 width="200.000000pt" height="38.000000pt" viewBox="0 0 200.000000 38.000000"
 preserveAspectRatio="xMidYMid meet">

<g transform="translate(0.000000,38.000000) scale(0.100000,-0.100000)"
fill="#000000" stroke="none">
<path d="M126 263 c-3 -3 2 -11 11 -18 10 -7 14 -19 10 -29 -8 -20 -47 -21
-47 -1 0 8 -4 15 -10 15 -5 0 -10 -17 -10 -37 0 -21 -3 -48 -6 -60 -6 -20 -3
-23 24 -23 17 0 42 4 56 10 24 9 26 13 23 71 -2 53 -6 63 -24 70 -11 4 -24 5
-27 2z m31 -99 c7 -18 -14 -35 -37 -31 -8 1 -16 12 -18 25 -3 18 1 22 23 22
14 0 28 -7 32 -16z"/>
<path d="M219 265 c-3 -30 0 -147 4 -152 3 -2 15 -2 27 2 16 5 19 10 11 18
-15 15 -14 47 2 47 7 0 21 -16 30 -35 11 -23 21 -33 31 -29 13 5 12 11 -6 35
-17 23 -19 32 -10 41 18 18 14 56 -7 68 -20 10 -81 14 -82 5z m76 -40 c0 -13
-8 -21 -22 -23 -19 -3 -23 1 -23 23 0 22 4 26 23 23 14 -2 22 -10 22 -23z"/>
<path d="M367 193 c1 -72 3 -78 23 -81 35 -6 70 7 70 25 0 13 -3 14 -12 5 -17
-17 -45 -15 -52 4 -11 28 -7 34 24 34 20 0 30 5 30 15 0 11 -7 14 -24 9 -16
-4 -25 -1 -30 11 -10 26 4 38 36 31 21 -4 28 -2 26 7 -3 6 -24 13 -49 15 l-44
3 2 -78z"/>
<path d="M495 190 c0 -45 4 -79 9 -77 6 2 9 29 7 60 -1 31 0 57 3 57 3 0 20
-28 37 -61 18 -38 34 -58 40 -52 5 5 11 41 14 81 4 56 2 72 -8 72 -10 0 -12
-15 -10 -62 l4 -63 -33 60 c-48 88 -63 84 -63 -15z"/>
<path d="M660 250 c-24 -24 -27 -87 -6 -115 18 -25 74 -25 92 0 19 26 18 100
-2 119 -21 22 -60 20 -84 -4z m68 -12 c16 -16 15 -70 -2 -94 -30 -40 -77 26
-57 79 11 29 39 35 59 15z"/>
<path d="M797 193 l2 -78 43 0 c35 0 43 4 46 20 3 16 1 18 -9 8 -7 -7 -21 -13
-32 -13 -16 0 -18 7 -16 68 2 60 0 67 -17 70 -17 3 -19 -3 -17 -75z"/>
<path d="M945 218 c-10 -29 -23 -63 -31 -75 -9 -15 -10 -24 -3 -28 18 -12 38
3 32 24 -5 18 -1 21 26 21 27 0 31 -4 31 -26 0 -18 5 -25 17 -22 20 4 21 -2
-8 86 -12 39 -28 72 -35 72 -7 0 -20 -24 -29 -52z m38 -5 c6 -31 -7 -53 -22
-38 -11 11 -3 65 9 65 4 0 10 -12 13 -27z"/>
</g>
</svg>
