<?xml version="1.0" standalone="no"?>
<!DOCTYPE svg PUBLIC "-//W3C//DTD SVG 20010904//EN"
 "http://www.w3.org/TR/2001/REC-SVG-20010904/DTD/svg10.dtd">
<svg version="1.0" xmlns="http://www.w3.org/2000/svg"
 width="200.000000pt" height="35.000000pt" viewBox="0 0 200.000000 35.000000"
 preserveAspectRatio="xMidYMid meet">

<g transform="translate(0.000000,35.000000) scale(0.100000,-0.100000)"
fill="#000000" stroke="none">
<path d="M67 253 c-4 -3 -7 -39 -7 -80 l0 -73 36 0 c19 0 44 5 55 10 20 11 26
45 8 55 -6 4 -7 19 -4 36 4 18 2 36 -5 44 -13 15 -71 21 -83 8z m59 -34 c10
-17 -13 -36 -27 -22 -12 12 -4 33 11 33 5 0 12 -5 16 -11z m0 -60 c10 -17 -13
-36 -27 -22 -12 12 -4 33 11 33 5 0 12 -5 16 -11z"/>
<path d="M200 180 c0 -73 2 -80 20 -80 16 0 20 7 20 33 1 34 4 32 36 -20 10
-14 15 -15 25 -6 10 10 10 17 0 37 -10 17 -10 29 -2 44 6 11 11 25 11 31 0 22
-33 41 -71 41 l-39 0 0 -80z m68 27 c2 -10 -3 -17 -12 -17 -10 0 -16 9 -16 21
0 24 23 21 28 -4z"/>
<path d="M340 180 l0 -80 45 0 c32 0 45 4 45 14 0 8 -10 16 -22 18 -26 3 -38
38 -14 38 20 0 21 16 1 24 -25 9 -18 36 10 36 16 0 25 6 25 15 0 11 -12 15
-45 15 l-45 0 0 -80z"/>
<path d="M467 253 c-4 -3 -7 -39 -7 -80 0 -66 2 -73 19 -73 16 0 20 8 23 38
l3 37 24 -37 c38 -62 51 -51 51 42 0 64 -3 80 -15 80 -10 0 -15 -11 -15 -35 0
-19 -4 -35 -8 -35 -5 0 -16 16 -25 35 -16 33 -35 44 -50 28z"/>
<path d="M637 242 c-26 -29 -23 -107 5 -126 49 -35 101 -11 114 51 6 30 -8 71
-30 85 -21 14 -73 8 -89 -10z m78 -43 c16 -49 -32 -82 -55 -38 -9 16 -8 26 4
44 18 27 42 24 51 -6z"/>
<path d="M790 181 l0 -81 40 0 c33 0 40 3 40 20 0 13 -7 20 -20 20 -16 0 -19
8 -22 57 -2 46 -7 59 -20 61 -16 3 -18 -6 -18 -77z"/>
<path d="M916 208 c-29 -100 -29 -108 -13 -108 9 0 19 9 22 20 9 27 51 27 58
0 6 -25 37 -27 36 -2 0 9 -8 44 -17 77 -15 53 -20 60 -44 63 -25 3 -28 -1 -42
-50z m49 -38 c-3 -6 -10 -10 -16 -10 -10 0 -12 33 -2 44 9 9 26 -22 18 -34z"/>
<path d="M1126 223 c7 -38 23 -78 29 -71 1 1 -2 27 -8 56 -12 59 -32 72 -21
15z"/>
<path d="M1216 248 c-30 -98 -42 -148 -35 -148 8 0 27 57 45 133 6 26 -3 39
-10 15z"/>
<path d="M1336 245 c-3 -8 -1 -15 4 -15 6 0 10 7 10 15 0 8 -2 15 -4 15 -2 0
-6 -7 -10 -15z"/>
<path d="M1427 225 c9 -19 18 -33 21 -31 4 5 -26 66 -33 66 -3 0 3 -16 12 -35z"/>
<path d="M1896 232 c-2 -4 4 -8 14 -8 10 0 16 4 14 8 -3 4 -9 8 -14 8 -5 0
-11 -4 -14 -8z"/>
<path d="M1287 224 c-6 -10 9 -42 16 -34 3 3 1 14 -3 24 -3 11 -9 15 -13 10z"/>
<path d="M1493 165 c0 -38 2 -53 4 -32 2 20 2 52 0 70 -2 17 -4 1 -4 -38z"/>
<path d="M1564 205 c-7 -27 2 -75 14 -75 4 0 6 20 4 44 -3 36 -1 45 15 49 15
4 14 5 -4 6 -16 1 -24 -6 -29 -24z"/>
<path d="M1841 217 c-1 -10 13 -31 30 -46 22 -20 27 -30 17 -34 -8 -4 -9 -6
-1 -6 26 -2 25 23 -1 42 -15 11 -32 29 -36 41 -7 18 -9 18 -9 3z"/>
<path d="M1461 204 c0 -11 3 -14 6 -6 3 7 2 16 -1 19 -3 4 -6 -2 -5 -13z"/>
<path d="M1653 185 c0 -22 2 -30 4 -17 2 12 2 30 0 40 -3 9 -5 -1 -4 -23z"/>
<path d="M1733 205 c-3 -9 -3 -19 1 -22 3 -4 6 1 6 11 0 9 5 14 10 11 6 -3 10
-1 10 4 0 17 -20 13 -27 -4z"/>
<path d="M1612 185 c0 -16 2 -22 5 -12 2 9 2 23 0 30 -3 6 -5 -1 -5 -18z"/>
<path d="M1321 184 c0 -11 3 -14 6 -6 3 7 2 16 -1 19 -3 4 -6 -2 -5 -13z"/>
<path d="M1400 140 c0 -22 5 -40 11 -40 6 0 8 8 4 20 -3 10 -1 28 5 40 9 16 8
20 -5 20 -11 0 -15 -11 -15 -40z"/>
<path d="M1288 165 c-13 -13 4 -35 27 -35 13 0 26 -7 28 -15 4 -11 4 -10 3 2
-1 10 -11 19 -23 21 -12 2 -23 10 -25 19 -2 8 -6 12 -10 8z"/>
<path d="M1843 131 c1 -14 9 -26 17 -28 10 -3 11 -2 4 4 -7 4 -14 17 -17 28
-5 16 -5 15 -4 -4z"/>
<path d="M1621 120 c-13 -11 -19 -20 -13 -20 10 0 42 27 42 36 0 7 -4 5 -29
-16z"/>
<path d="M1713 125 c-3 -9 -3 -18 -1 -21 3 -3 8 4 11 16 6 23 -1 27 -10 5z"/>
</g>
</svg>
